<?xml version="1.0" encoding="utf-8"?>
<!-- Generator: Adobe Illustrator 16.0.0, SVG Export Plug-In . SVG Version: 6.00 Build 0)  -->
<!DOCTYPE svg PUBLIC "-//W3C//DTD SVG 1.1//EN" "http://www.w3.org/Graphics/SVG/1.1/DTD/svg11.dtd">
<svg version="1.1" id="HSBC_MASTERBRAND_LOGO_WW_RGB"
	 xmlns="http://www.w3.org/2000/svg" xmlns:xlink="http://www.w3.org/1999/xlink" x="0px" y="0px" width="831.829px"
	 height="224.086px" viewBox="223.822 287.957 831.829 224.086" enable-background="new 223.822 287.957 831.829 224.086"
	 xml:space="preserve">
<rect x="335.997" y="287.957" fill="#FFFFFF" width="223.823" height="223.822"/>
<polygon fill="#DB0011" points="671.73,400.132 559.819,287.957 559.819,512.043 "/>
<polygon fill="#DB0011" points="447.908,400.132 559.819,287.957 335.997,287.957 "/>
<polygon fill="#DB0011" points="223.822,400.132 335.997,512.043 335.997,287.957 "/>
<polygon fill="#DB0011" points="447.908,400.132 335.997,512.043 559.819,512.043 "/>
<path d="M769.948,406.715h-40.551v40.024h-20.276v-93.742h20.276v38.445h40.551v-38.445h20.276v93.742h-20.276V406.715z"/>
<path d="M839.202,448.583c-20.276,0-36.865-8.163-37.129-30.546h20.276c0.263,10.007,6.056,16.063,17.115,16.063
	c8.163,0,17.643-4.213,17.643-13.429c0-7.373-6.319-9.479-16.853-12.64l-6.846-1.843c-14.746-4.214-29.492-10.007-29.492-26.859
	c0-20.802,19.485-27.912,37.128-27.912c18.169,0,33.969,6.32,34.231,27.122h-20.275c-0.79-8.426-5.793-13.429-15.272-13.429
	c-7.637,0-15.01,3.949-15.01,12.376c0,6.846,6.32,8.953,19.486,13.166l7.899,2.37c16.063,5.003,26.332,10.532,26.332,26.332
	C878.173,440.42,857.635,448.583,839.202,448.583z"/>
<path d="M889.76,353.261h32.651c6.056-0.264,12.376,0,18.433,1.053c11.322,2.634,20.012,10.007,20.012,22.646
	c0,12.113-7.636,18.17-18.695,21.066c12.639,2.369,22.119,8.689,22.119,22.646c0,21.329-21.066,26.068-37.392,26.068h-36.865
	L889.76,353.261z M922.411,392.232c8.953,0,18.169-1.844,18.169-12.64c0-9.743-8.426-12.376-16.853-12.376h-14.22v25.016H922.411z
	 M924.254,432.783c9.479,0,18.696-2.106,18.696-13.692s-7.899-13.692-17.643-13.692h-16.063v27.385H924.254z"/>
<path d="M1016.943,448.583c-30.282,0-43.712-19.223-43.712-47.925s15.01-49.504,44.765-49.504c18.696,0,36.865,8.426,37.392,29.491
	h-21.065c-1.054-9.479-7.373-14.219-16.326-14.219c-18.433,0-23.962,19.749-23.962,34.758c0,15.01,5.529,32.389,23.172,32.389
	c9.217,0,16.063-5.003,17.38-14.482h21.065C1053.545,440.683,1036.429,448.583,1016.943,448.583z"/>
</svg>
