<?xml version="1.0" encoding="utf-8"?>
<!-- Generator: Adobe Illustrator 16.0.0, SVG Export Plug-In . SVG Version: 6.00 Build 0)  -->
<!DOCTYPE svg PUBLIC "-//W3C//DTD SVG 1.1//EN" "http://www.w3.org/Graphics/SVG/1.1/DTD/svg11.dtd">
<svg version="1.1" id="Capa_1" xmlns="http://www.w3.org/2000/svg" xmlns:xlink="http://www.w3.org/1999/xlink" x="0px" y="0px"
	 width="323.595px" height="311.59px" viewBox="0 0 323.595 311.59" enable-background="new 0 0 323.595 311.59"
	 xml:space="preserve">
<g>
	<circle fill="#FEFEFE" cx="158.565" cy="139.409" r="119.555"/>
	<path fill="#2E3F73" d="M222.732,109.071l0.016-0.089c0.778-4.174-1.797-8.123-5.97-8.9l-0.353-0.066
		c-0.007-0.001-0.014-0.003-0.021-0.004l-47.695-8.892l-0.001,0.001l-45.175-8.422c-4.173-0.779-8.372,1.908-9.15,6.081
		l-11.271,60.453c0,0.002,0,0.005-0.002,0.008l-0.016,0.089c-0.779,4.173,1.796,8.123,5.969,8.9l0.349,0.065
		c0.009,0.001,0.016,0.004,0.024,0.006l47.696,8.892l0.001-0.001l45.176,8.423c4.173,0.778,8.372-1.908,9.15-6.082l11.271-60.453
		C222.731,109.076,222.731,109.074,222.732,109.071z"/>
	<circle fill="#E14E4A" cx="246.37" cy="241.943" r="51.895"/>
	<g>
		<polygon fill="#FEFEFE" points="267.192,226.437 257.649,216.894 243.336,231.208 229.023,216.894 219.481,226.437 
			233.794,240.75 219.481,255.063 229.023,264.604 243.336,250.292 257.649,264.604 267.192,255.063 252.879,240.75 		"/>
		<path fill="#FEFEFE" d="M257.649,265.797c-0.305,0-0.61-0.116-0.844-0.349l-13.47-13.47l-13.469,13.47
			c-0.466,0.466-1.221,0.466-1.686,0l-9.542-9.543c-0.466-0.466-0.466-1.22,0-1.686l13.469-13.47l-13.469-13.469
			c-0.466-0.466-0.466-1.221,0-1.688l9.542-9.542c0.465-0.466,1.22-0.466,1.686,0l13.469,13.47l13.47-13.47
			c0.466-0.466,1.221-0.466,1.687,0l9.542,9.542c0.466,0.466,0.466,1.221,0,1.688l-13.469,13.469l13.469,13.47
			c0.466,0.466,0.466,1.22,0,1.686l-9.542,9.543C258.259,265.682,257.954,265.797,257.649,265.797z M243.336,249.098
			c0.305,0,0.61,0.117,0.844,0.351l13.469,13.47l7.855-7.855l-13.47-13.47c-0.466-0.466-0.466-1.221,0-1.688l13.47-13.47
			l-7.855-7.855l-13.469,13.47c-0.467,0.466-1.221,0.466-1.688,0l-13.469-13.47l-7.855,7.855l13.469,13.47
			c0.466,0.466,0.466,1.221,0,1.688l-13.469,13.47l7.855,7.855l13.469-13.47C242.727,249.215,243.031,249.098,243.336,249.098z"/>
	</g>
	<g>
		<g>
			<path fill="#136AA9" d="M213.682,139.409v-30.797c0-4.246-3.255-7.655-7.5-7.655H111.33c-4.251,0-7.881,3.409-7.881,7.655v61.495
				c0,4.247,3.63,7.757,7.881,7.757h48.516"/>
		</g>
		<g>
			<path fill="#136AA9" d="M103.449,139.409v30.797c0,4.246,3.255,7.657,7.5,7.657h94.852c4.246,0,7.881-3.411,7.881-7.657v-61.495
				c0-4.246-3.635-7.755-7.881-7.755h-48.517"/>
		</g>
		<g>
			<rect x="103.449" y="113.774" fill="#FFFFFF" width="110.232" height="5.128"/>
		</g>
		<g>
			<rect x="103.449" y="129.155" fill="#FFFFFF" width="110.232" height="5.128"/>
		</g>
		<g>
			<rect x="111.14" y="139.409" fill="#FFFFFF" width="17.944" height="5.128"/>
		</g>
	</g>
</g>
</svg>
