<?xml version="1.0" encoding="utf-8"?>
<!-- Generator: Adobe Illustrator 16.0.0, SVG Export Plug-In . SVG Version: 6.00 Build 0)  -->
<!DOCTYPE svg PUBLIC "-//W3C//DTD SVG 1.1//EN" "http://www.w3.org/Graphics/SVG/1.1/DTD/svg11.dtd">
<svg version="1.1" id="Capa_1" xmlns="http://www.w3.org/2000/svg" xmlns:xlink="http://www.w3.org/1999/xlink" x="0px" y="0px"
	 width="323.595px" height="311.59px" viewBox="0 0 323.595 311.59" enable-background="new 0 0 323.595 311.59"
	 xml:space="preserve">
<g>
	<circle fill="#FEFEFE" cx="156.159" cy="139.496" r="115.796"/>
	<circle fill="#E14E4A" cx="241.204" cy="238.805" r="50.263"/>
	<g>
		<polygon fill="#FEFEFE" points="261.37,223.786 252.127,214.544 238.265,228.407 224.401,214.544 215.16,223.786 229.022,237.65 
			215.16,251.513 224.401,260.754 238.265,246.892 252.127,260.754 261.37,251.513 247.506,237.65 		"/>
		<path fill="#FEFEFE" d="M252.127,261.91c-0.295,0-0.59-0.113-0.816-0.338l-13.046-13.046l-13.046,13.046
			c-0.451,0.451-1.181,0.451-1.633,0l-9.242-9.242c-0.451-0.451-0.451-1.182,0-1.633l13.046-13.046l-13.046-13.046
			c-0.451-0.451-0.451-1.183,0-1.634l9.242-9.241c0.452-0.452,1.182-0.452,1.633,0l13.046,13.046l13.046-13.046
			c0.451-0.452,1.182-0.452,1.633,0l9.242,9.241c0.45,0.451,0.45,1.183,0,1.634L249.14,237.65l13.046,13.046
			c0.45,0.451,0.45,1.182,0,1.633l-9.242,9.242C252.719,261.797,252.424,261.91,252.127,261.91z M238.265,245.736
			c0.296,0,0.591,0.112,0.817,0.338l13.046,13.046l7.609-7.607l-13.047-13.046c-0.451-0.452-0.451-1.183,0-1.634l13.047-13.046
			l-7.609-7.608l-13.046,13.046c-0.451,0.452-1.182,0.452-1.633,0l-13.047-13.046l-7.608,7.608l13.046,13.046
			c0.452,0.451,0.452,1.183,0,1.634l-13.046,13.046l7.608,7.607l13.047-13.046C237.674,245.848,237.97,245.736,238.265,245.736z"/>
	</g>
	<g>
		<g>
			<g>
				<g>
					<polyline fill="#FDB42F" points="195.886,119.631 195.886,84.871 131.33,84.871 116.432,99.769 116.432,194.12 195.886,194.12 
						195.886,174.256 					"/>
				</g>
				<g>
					<polyline fill="#AB6B45" points="121.397,104.735 136.295,104.735 136.295,89.836 					"/>
				</g>
			</g>
		</g>
		<path fill="#FFFFFF" d="M148.997,114.77c0,1.055-0.855,1.909-1.908,1.909h-19.51c-1.055,0-1.908-0.854-1.908-1.909l0,0
			c0-1.053,0.854-1.909,1.908-1.909h19.51C148.142,112.861,148.997,113.716,148.997,114.77L148.997,114.77z"/>
		<path fill="#FFFFFF" d="M188.44,114.77c0,1.055-0.854,1.909-1.908,1.909h-33.788c-1.054,0-1.909-0.854-1.909-1.909l0,0
			c0-1.053,0.854-1.909,1.909-1.909h33.788C187.586,112.861,188.44,113.716,188.44,114.77L188.44,114.77z"/>
		<path fill="#FFFFFF" d="M148.997,124.171c0,0.859-0.696,1.555-1.556,1.555h-20.216c-0.859,0-1.555-0.696-1.555-1.555l0,0
			c0-0.859,0.695-1.555,1.555-1.555h20.216C148.301,122.616,148.997,123.312,148.997,124.171L148.997,124.171z"/>
		<path fill="#FFFFFF" d="M165.538,124.171c0,0.859-0.695,1.555-1.555,1.555h-10.037c-0.86,0-1.556-0.696-1.556-1.555l0,0
			c0-0.859,0.696-1.555,1.556-1.555h10.037C164.842,122.616,165.538,123.312,165.538,124.171L165.538,124.171z"/>
		<path fill="#FFFFFF" d="M138.819,143.313c0,0.859-0.697,1.555-1.557,1.555h-10.037c-0.859,0-1.555-0.696-1.555-1.555l0,0
			c0-0.859,0.695-1.555,1.555-1.555h10.037C138.122,141.757,138.819,142.454,138.819,143.313L138.819,143.313z"/>
		<path fill="#FFFFFF" d="M160.379,133.219c0,0.859-0.696,1.555-1.555,1.555h-31.599c-0.859,0-1.555-0.696-1.555-1.555l0,0
			c0-0.859,0.695-1.555,1.555-1.555h31.599C159.683,131.664,160.379,132.36,160.379,133.219L160.379,133.219z"/>
	</g>
</g>
</svg>
