<?xml version="1.0" encoding="utf-8"?>
<!-- Generator: Adobe Illustrator 16.0.0, SVG Export Plug-In . SVG Version: 6.00 Build 0)  -->
<!DOCTYPE svg PUBLIC "-//W3C//DTD SVG 1.1//EN" "http://www.w3.org/Graphics/SVG/1.1/DTD/svg11.dtd">
<svg version="1.1" id="Capa_1" xmlns="http://www.w3.org/2000/svg" xmlns:xlink="http://www.w3.org/1999/xlink" x="0px" y="0px"
	 width="841.89px" height="595.28px" viewBox="0 0 841.89 595.28" enable-background="new 0 0 841.89 595.28" xml:space="preserve">
<g>
	<circle fill="#FEFEFE" cx="378.84" cy="260.462" r="245.888"/>
	<g>
		<polygon fill="#FEFEFE" points="542.257,503.896 503.008,464.646 522.632,445.021 542.257,464.646 596.226,410.678 
			615.85,430.304 		"/>
		<path fill="#FEFEFE" d="M542.257,506.351c-0.627,0-1.255-0.241-1.734-0.72l-39.25-39.25c-0.958-0.959-0.958-2.51,0-3.469
			l19.625-19.625c0.959-0.958,2.511-0.958,3.47,0l17.89,17.891l52.233-52.232c0.959-0.959,2.512-0.959,3.47,0l19.625,19.623
			c0.958,0.958,0.958,2.512,0,3.469l-73.594,73.594C543.512,506.109,542.885,506.351,542.257,506.351z M506.477,464.646
			l35.78,35.781l70.124-70.124l-16.155-16.157l-52.234,52.234c-0.958,0.959-2.511,0.959-3.469,0l-17.891-17.891L506.477,464.646z"/>
	</g>
	<g>
		<g>
			<path fill="#1169A8" d="M474.267,337.569H370.454c-5.734,0-10.382-4.647-10.382-10.378V197.423
				c0-5.734,4.648-10.382,10.382-10.382h103.813c5.73,0,10.378,4.648,10.378,10.382v129.769
				C484.645,332.922,479.997,337.569,474.267,337.569z"/>
		</g>
		<g>
			<polygon fill="#85CBD6" points="467.855,322 459.915,322 459.915,263.682 384.806,263.682 384.806,322 376.867,322 
				376.867,255.742 467.855,255.742 			"/>
		</g>
		<g>
			<polygon fill="#85CBD6" points="467.855,242.917 376.867,242.917 376.867,202.614 384.806,202.614 384.806,234.978 
				459.915,234.978 459.915,202.614 467.855,202.614 			"/>
		</g>
		<g>
			<path fill="#FDB42F" d="M462.664,133.917h-80.61v-14.352c0-7.915,6.439-14.352,14.352-14.352h51.906
				c7.913,0,14.353,6.438,14.353,14.352V133.917z M389.993,125.979h64.731v-6.413c0-3.535-2.878-6.413-6.413-6.413h-51.906
				c-3.535,0-6.412,2.877-6.412,6.413V125.979z"/>
		</g>
		<g>
			<rect x="397.626" y="129.948" fill="#FDB42F" width="7.94" height="57.093"/>
		</g>
		<g>
			<rect x="439.15" y="129.948" fill="#FDB42F" width="7.94" height="57.093"/>
		</g>
		<g>
			<rect x="411.974" y="286.885" fill="#85CBD6" width="20.765" height="7.939"/>
		</g>
		<g>
			<rect x="376.867" y="337.569" fill="#FE4D4D" width="7.939" height="15.573"/>
		</g>
		<g>
			<rect x="459.915" y="337.569" fill="#FE4D4D" width="7.94" height="15.573"/>
		</g>
		<g>
			<g>
				<path fill="#3FA2E7" d="M401.841,360.64H250.987c-6.579,0-11.91-5.335-11.91-11.909v-87.336c0-6.575,5.332-11.91,11.91-11.91
					h150.854c6.575,0,11.91,5.334,11.91,11.91v87.336C413.751,355.305,408.416,360.64,401.841,360.64z"/>
			</g>
			<g>
				<path fill="#FFFFFF" d="M278.775,289.183c-2.193,0-3.97-1.777-3.97-3.97v-35.729c0-2.192,1.777-3.969,3.97-3.969
					c2.195,0,3.97,1.777,3.97,3.969v35.729C282.745,287.406,280.971,289.183,278.775,289.183z"/>
			</g>
			<g>
				<path fill="#FFFFFF" d="M278.775,364.609c-2.193,0-3.97-1.777-3.97-3.97v-19.849c0-2.193,1.777-3.97,3.97-3.97
					c2.195,0,3.97,1.776,3.97,3.97v19.849C282.745,362.832,280.971,364.609,278.775,364.609z"/>
			</g>
			<g>
				<path fill="#FFFFFF" d="M374.052,364.609c-2.195,0-3.97-1.777-3.97-3.97V249.484c0-2.192,1.775-3.969,3.97-3.969
					c2.193,0,3.969,1.777,3.969,3.969V360.64C378.021,362.832,376.246,364.609,374.052,364.609z"/>
			</g>
			<g>
				<path fill="#3FA2E7" d="M350.232,249.484h-7.939v-15.878c0-2.189-1.779-3.97-3.97-3.97h-23.818c-2.19,0-3.97,1.781-3.97,3.97
					v15.878h-7.939v-15.878c0-6.568,5.341-11.91,11.909-11.91h23.818c6.567,0,11.909,5.342,11.909,11.91V249.484z"/>
			</g>
			<g>
				
					<rect x="262.66" y="302.434" transform="matrix(0.9348 0.3551 -0.3551 0.9348 130.2595 -79.8659)" fill="#FE4D4B" width="40.162" height="25.105"/>
			</g>
			<g>
				<polygon fill="#FE4D4B" points="344.729,300.697 310.875,290.478 336.656,266.271 				"/>
			</g>
			<g>
				<circle fill="#FDB42F" cx="330.383" cy="332.852" r="11.91"/>
			</g>
		</g>
	</g>
	<circle fill="#F6CB50" cx="559.429" cy="471.343" r="106.732"/>
	<g>
		<path fill="#FEFEFE" d="M560.421,494.241h-26.18v-72.593h26.18V494.241z M560.421,534.093h-26.18v-21.855h26.18V534.093z"/>
	</g>
</g>
</svg>
