<?xml version="1.0" encoding="utf-8"?>
<!-- Generator: Adobe Illustrator 16.0.0, SVG Export Plug-In . SVG Version: 6.00 Build 0)  -->
<!DOCTYPE svg PUBLIC "-//W3C//DTD SVG 1.1//EN" "http://www.w3.org/Graphics/SVG/1.1/DTD/svg11.dtd">
<svg version="1.1" id="Capa_1" xmlns="http://www.w3.org/2000/svg" xmlns:xlink="http://www.w3.org/1999/xlink" x="0px" y="0px"
	 width="323.595px" height="311.59px" viewBox="0 0 323.595 311.59" enable-background="new 0 0 323.595 311.59"
	 xml:space="preserve">
<g>
	<circle fill="#FEFEFE" cx="152.169" cy="134.998" r="117.007"/>
	<circle fill="#F6CB50" cx="238.104" cy="235.346" r="50.789"/>
	<g>
		<path fill="#FEFEFE" d="M238.575,246.243h-12.458v-34.544h12.458V246.243z M238.575,265.206h-12.458v-10.4h12.458V265.206z"/>
	</g>
	<g>
		<g>
			<path fill="#3FA2E7" d="M113.282,160.086h-7.713c-4.155,0-7.34-3.401-7.34-7.558V94.823c0-4.157,3.186-7.495,7.34-7.495h92.829
				c4.16,0,7.713,3.337,7.713,7.495v57.705c0,4.157-3.553,7.558-7.713,7.558h-44.973"/>
		</g>
		<g>
			<rect x="98.228" y="97.364" fill="#FFFFFF" width="107.882" height="5.017"/>
		</g>
		<g>
			<rect x="98.228" y="112.417" fill="#FFFFFF" width="107.882" height="5.018"/>
		</g>
		<g>
			<path fill="#FE4D4D" d="M113.282,180.158c0,1.387,1.122,2.508,2.508,2.508h35.125c1.386,0,2.509-1.122,2.509-2.508V152.56
				c0-1.387-1.124-2.509-2.509-2.509H115.79c-1.387,0-2.508,1.123-2.508,2.509V180.158z"/>
		</g>
		<g>
			<path fill="#E2EDFA" d="M118.299,137.506c0-8.301,6.752-15.053,15.054-15.053c8.301,0,15.053,6.752,15.053,15.053v15.054h-30.107
				V137.506z M143.388,137.506c0-5.534-4.501-10.036-10.035-10.036c-5.535,0-10.036,4.502-10.036,10.036v10.036h20.071V137.506z"/>
		</g>
		<g>
			<rect x="173.494" y="122.453" fill="#FFFFFF" width="25.091" height="5.017"/>
		</g>
	</g>
</g>
</svg>
