<?xml version="1.0" encoding="utf-8"?>
<!-- Generator: Adobe Illustrator 16.0.0, SVG Export Plug-In . SVG Version: 6.00 Build 0)  -->
<!DOCTYPE svg PUBLIC "-//W3C//DTD SVG 1.1//EN" "http://www.w3.org/Graphics/SVG/1.1/DTD/svg11.dtd">
<svg version="1.1" id="Capa_1" xmlns="http://www.w3.org/2000/svg" xmlns:xlink="http://www.w3.org/1999/xlink" x="0px" y="0px"
	 width="323.595px" height="311.59px" viewBox="0 0 323.595 311.59" enable-background="new 0 0 323.595 311.59"
	 xml:space="preserve">
<g>
	<circle fill="#FEFEFE" cx="160.372" cy="143.833" r="116.296"/>
	<circle fill="#24CC23" cx="245.784" cy="243.572" r="50.48"/>
	<g>
		<polygon fill="#FEFEFE" points="237.662,258.969 219.099,240.405 228.38,231.123 237.662,240.405 263.188,214.88 272.469,224.162 
					"/>
		<path fill="#FEFEFE" d="M237.662,260.13c-0.297,0-0.594-0.114-0.82-0.341l-18.563-18.563c-0.453-0.453-0.453-1.188,0-1.641
			l9.281-9.282c0.454-0.453,1.188-0.453,1.642,0l8.461,8.462l24.705-24.704c0.453-0.454,1.188-0.454,1.641,0l9.282,9.28
			c0.452,0.454,0.452,1.188,0,1.641l-34.808,34.808C238.256,260.016,237.959,260.13,237.662,260.13z M220.739,240.405l16.923,16.923
			l33.166-33.166l-7.641-7.642l-24.705,24.705c-0.453,0.453-1.188,0.453-1.641,0l-8.462-8.462L220.739,240.405z"/>
	</g>
	<g>
		<g>
			<path fill="#1169A8" d="M205.505,180.302h-49.1c-2.712,0-4.91-2.198-4.91-4.908v-61.376c0-2.712,2.198-4.91,4.91-4.91h49.1
				c2.711,0,4.909,2.198,4.909,4.91v61.376C210.414,178.104,208.216,180.302,205.505,180.302z"/>
		</g>
		<g>
			<polygon fill="#85CBD6" points="202.473,172.938 198.718,172.938 198.718,145.356 163.193,145.356 163.193,172.938 
				159.438,172.938 159.438,141.601 202.473,141.601 			"/>
		</g>
		<g>
			<polygon fill="#85CBD6" points="202.473,135.535 159.438,135.535 159.438,116.473 163.193,116.473 163.193,131.78 
				198.718,131.78 198.718,116.473 202.473,116.473 			"/>
		</g>
		<g>
			<path fill="#FDB42F" d="M200.018,83.982h-38.126v-6.788c0-3.743,3.045-6.788,6.788-6.788h24.55c3.742,0,6.788,3.045,6.788,6.788
				V83.982z M165.646,80.227h30.616v-3.033c0-1.672-1.361-3.033-3.033-3.033h-24.55c-1.672,0-3.033,1.361-3.033,3.033V80.227z"/>
		</g>
		<g>
			<rect x="169.257" y="82.104" fill="#FDB42F" width="3.755" height="27.003"/>
		</g>
		<g>
			<rect x="188.896" y="82.104" fill="#FDB42F" width="3.755" height="27.003"/>
		</g>
		<g>
			<rect x="176.043" y="156.33" fill="#85CBD6" width="9.821" height="3.755"/>
		</g>
		<g>
			<rect x="159.438" y="180.302" fill="#FE4D4D" width="3.755" height="7.366"/>
		</g>
		<g>
			<rect x="198.718" y="180.302" fill="#FE4D4D" width="3.755" height="7.366"/>
		</g>
		<g>
			<g>
				<path fill="#3FA2E7" d="M171.25,191.214H99.902c-3.112,0-5.633-2.523-5.633-5.633v-41.307c0-3.11,2.521-5.633,5.633-5.633
					h71.348c3.11,0,5.633,2.523,5.633,5.633v41.307C176.883,188.69,174.36,191.214,171.25,191.214z"/>
			</g>
			<g>
				<path fill="#FFFFFF" d="M113.044,157.417c-1.037,0-1.877-0.84-1.877-1.877v-16.898c0-1.037,0.84-1.877,1.877-1.877
					c1.039,0,1.878,0.84,1.878,1.877v16.898C114.922,156.577,114.083,157.417,113.044,157.417z"/>
			</g>
			<g>
				<path fill="#FFFFFF" d="M113.044,193.091c-1.037,0-1.877-0.84-1.877-1.877v-9.388c0-1.037,0.84-1.878,1.877-1.878
					c1.039,0,1.878,0.841,1.878,1.878v9.388C114.922,192.251,114.083,193.091,113.044,193.091z"/>
			</g>
			<g>
				<path fill="#FFFFFF" d="M158.107,193.091c-1.039,0-1.878-0.84-1.878-1.877v-52.573c0-1.037,0.839-1.877,1.878-1.877
					c1.037,0,1.877,0.84,1.877,1.877v52.573C159.984,192.251,159.145,193.091,158.107,193.091z"/>
			</g>
			<g>
				<path fill="#3FA2E7" d="M146.841,138.641h-3.755v-7.51c0-1.035-0.842-1.877-1.878-1.877h-11.265
					c-1.036,0-1.878,0.842-1.878,1.877v7.51h-3.755v-7.51c0-3.106,2.526-5.633,5.633-5.633h11.265c3.106,0,5.633,2.526,5.633,5.633
					V138.641z"/>
			</g>
			<g>
				
					<rect x="105.423" y="163.685" transform="matrix(0.9349 0.355 -0.355 0.9349 67.7097 -29.7508)" fill="#FE4D4B" width="18.995" height="11.874"/>
			</g>
			<g>
				<polygon fill="#FE4D4B" points="144.238,162.863 128.227,158.029 140.42,146.581 				"/>
			</g>
			<g>
				<circle fill="#FDB42F" cx="137.453" cy="178.07" r="5.633"/>
			</g>
		</g>
	</g>
</g>
</svg>
